<?xml version="1.0" encoding="UTF-8" standalone="no"?><!DOCTYPE svg PUBLIC "-//W3C//DTD SVG 1.1//EN" "http://www.w3.org/Graphics/SVG/1.1/DTD/svg11.dtd"><svg width="100%" height="100%" viewBox="0 0 32 32" version="1.1" xmlns="http://www.w3.org/2000/svg" xmlns:xlink="http://www.w3.org/1999/xlink" xml:space="preserve" xmlns:serif="http://www.serif.com/" style="fill-rule:evenodd;clip-rule:evenodd;stroke-linecap:round;stroke-linejoin:round;stroke-miterlimit:1.5;"><path d="M20,27c0,2.208 -1.792,4 -4,4c-2.208,0 -4,-1.792 -4,-4l8,0Z" style="fill:none;stroke:#000;stroke-width:2px;"/><path d="M29,27l-26,0c-1.104,0 -2,-0.896 -2,-2c0,-1.104 2.537,-2.399 3,-4c0.674,-2.333 1.015,-9.671 1.045,-10c0.506,-5.603 5.221,-10 10.955,-10c5.734,0 10.449,4.397 10.955,10c0.03,0.329 0.371,7.667 1.045,10c0.463,1.601 3,2.896 3,4c0,1.104 -0.896,2 -2,2Z" style="fill:#050505;stroke:#000;stroke-width:2px;"/></svg>