<?xml version="1.0" encoding="UTF-8" standalone="no"?><!DOCTYPE svg PUBLIC "-//W3C//DTD SVG 1.1//EN" "http://www.w3.org/Graphics/SVG/1.1/DTD/svg11.dtd"><svg width="100%" height="100%" viewBox="0 0 32 32" version="1.1" xmlns="http://www.w3.org/2000/svg" xmlns:xlink="http://www.w3.org/1999/xlink" xml:space="preserve" xmlns:serif="http://www.serif.com/" style="fill-rule:evenodd;clip-rule:evenodd;stroke-linecap:round;stroke-linejoin:round;stroke-miterlimit:1.5;"><path d="M11,28c0,0.796 -0.316,1.559 -0.879,2.121c-0.563,0.563 -1.326,0.879 -2.121,0.879c-1.9,0 -4,0 -4,0c-1.656,0 -3,-1.344 -3,-3l0,-12l15,-15l15,15l0,12c0,1.656 -1.344,3 -3,3l-4,-0c-0.796,0 -1.559,-0.316 -2.121,-0.879c-0.563,-0.563 -0.879,-1.326 -0.879,-2.121c0,-2.946 0,-7 0,-7c0,-2.76 -2.24,-5 -5,-5c-2.76,0 -5,2.24 -5,5l-0,7Z" style="fill:none;stroke:#000;stroke-width:2px;"/></svg>